<?xml version="1.0" encoding="utf-8"?>
<!-- Generator: Adobe Illustrator 22.0.1, SVG Export Plug-In . SVG Version: 6.00 Build 0)  -->
<svg version="1.1" xmlns="http://www.w3.org/2000/svg" xmlns:xlink="http://www.w3.org/1999/xlink" x="0px" y="0px"
	 viewBox="0 0 768 768" style="enable-background:new 0 0 768 768;" xml:space="preserve">
<style type="text/css">
	.st0{display:none;}
	.st1{display:inline;fill-rule:evenodd;clip-rule:evenodd;stroke:#000000;stroke-miterlimit:10;}
	.st2{fill-rule:evenodd;clip-rule:evenodd;}
	.st3{display:inline;}
	.st4{display:inline;fill-rule:evenodd;clip-rule:evenodd;}
</style>
<g id="Play" class="st0">
	<polygon class="st1" points="123.5,61.5 640.5,383.5 123.5,714.5 	"/>
</g>
<g id="Pause" class="st0">
	<rect x="241.5" y="84.5" class="st1" width="121" height="600"/>
	<rect x="406.5" y="84.5" class="st1" width="121" height="600"/>
</g>
<g id="_x2B_1">
	<g>
		<path d="M447.4,561.3h101.3V240c0-9.6,0.3-19.4,1-29.3l-84.2,72c-2.2,1.8-4.4,3-6.6,3.8c-2.2,0.8-4.3,1.2-6.2,1.2
			c-3.3,0-6.2-0.7-8.9-2.1c-2.6-1.4-4.6-3.1-5.9-5.1l-18.4-25.3l140.1-121.3h47.7v427.5h92.7V606H447.4V561.3z"/>
	</g>
	<rect x="186" y="268" class="st2" width="53" height="232"/>
	<rect x="186" y="268" transform="matrix(-1.836970e-16 1 -1 -1.836970e-16 596.5 171.5)" class="st2" width="53" height="232"/>
</g>
<g id="_x2D_1" class="st0">
	<g class="st3">
		<path d="M447.4,561.3h101.3V240c0-9.6,0.3-19.4,1-29.3l-84.2,72c-2.2,1.8-4.4,3-6.6,3.8c-2.2,0.8-4.3,1.2-6.2,1.2
			c-3.3,0-6.2-0.7-8.9-2.1c-2.6-1.4-4.6-3.1-5.9-5.1l-18.4-25.3l140.1-121.3h47.7v427.5h92.7V606H447.4V561.3z"/>
	</g>
	<rect x="186" y="268" transform="matrix(-1.836970e-16 1 -1 -1.836970e-16 596.5 171.5)" class="st4" width="53" height="232"/>
</g>
</svg>
